{"title":"Little Blue Pill 2010 WEBRip XviD-QRIUS","uid":8000565,"size":1056127070,"categoryP":"video","categoryS":"movies","magnet":"?xt=urn:btih:9e03f9e3a093fd88f6cad5ac8a62dbf5c93de4ed&amp;dn=Little+Blue+Pill+2010+WEBRip+XviD-QRIUS&amp;tr=udp%3A%2F%2Ftracker.openbittorrent.com%3A80&amp;tr=udp%3A%2F%2Fopen.demonii.com%3A1337&amp;tr=udp%3A%2F%2Ftracker.coppersurfer.tk%3A6969&amp;tr=udp%3A%2F%2Fexodus.desync.com%3A6969","seeders":2,"leechers":0,"uploader":"juggs99","files":5,"time":1357744517,"description":" &lt;a href=&quot;http://www.shotpix.com/images/15385549027784480747.jpg&quot; rel=&quot;nofollow&quot; target=&quot;_NEW&quot;&gt;http://www.shotpix.com/images/15385549027784480747.jpg&lt;/a&gt;\n\n\niMDB.................: http://www.imdb.com/title/tt1583307/\n\n\n\nFormat                                   : AVI\n\nFormat/Info                              : Audio Video Interleave\n\nFile size                                : 998 MiB\n\nDuration                                 : 1h 33mn\n\nOverall bit rate                         : 1 494 Kbps\n\n\n\nVideo\n\nID                                       : 0\n\nFormat                                   : MPEG-4 Visual\n\nFormat profile                           : Advanced Simple@L5\n\nFormat settings, BVOP                    : 1\n\nFormat settings, QPel                    : No\n\nFormat settings, GMC                     : No warppoints\n\nFormat settings, Matrix                  : Default (H.263)\n\nCodec ID                                 : XVID\n\nCodec ID/Hint                            : XviD\n\nDuration                                 : 1h 33mn\n\nBit rate                                 : 1 292 Kbps\n\nWidth                                    : 720 pixels\n\nHeight                                   : 400 pixels\n\nDisplay aspect ratio                     : 16:9\n\nFrame rate                               : 23.976 fps\n\nColor space                              : YUV\n\nChroma subsampling                       : 4:2:0\n\nBit depth                                : 8 bits\n\nScan type                                : Progressive\n\nCompression mode                         : Lossy\n\nBits/(Pixel*Frame)                       : 0.187\n\nStream size                              : 863 MiB (87%)\n\nWriting library                          : XviD 64\n\n\n\nAudio\n\nID                                       : 1\n\nFormat                                   : AC-3\n\nFormat/Info                              : Audio Coding 3\n\nMode extension                           : CM (complete main)\n\nFormat settings, Endianness              : Big\n\nCodec ID                                 : 2000\n\nDuration                                 : 1h 33mn\n\nBit rate mode                            : Constant\n\nBit rate                                 : 192 Kbps\n\nChannel(s)                               : 2 channels\n\nChannel positions                        : Front: L R\n\nSampling rate                            : 48.0 KHz\n\nBit depth                                : 16 bits\n\nCompression mode                         : Lossy\n\nStream size                              : 128 MiB (13%)\n\nAlignment                                : Split accross interleaves\n\nInterleave, duration                     : 42 ms (1.00 video frame)\n\nInterleave, preload duration             : 500 ms\n\n &lt;a href=&quot;\nhttp://old.rapidimg.org/images/X4xF8.png&quot; rel=&quot;nofollow&quot; target=&quot;_NEW&quot;&gt;\nhttp://old.rapidimg.org/images/X4xF8.png&lt;/a&gt; &lt;a href=&quot;\nhttp://old.rapidimg.org/images/B9xGw.png&quot; rel=&quot;nofollow&quot; target=&quot;_NEW&quot;&gt;\nhttp://old.rapidimg.org/images/B9xGw.png&lt;/a&gt;\n","torrent":{"xt":"urn:btih:9e03f9e3a093fd88f6cad5ac8a62dbf5c93de4ed","amp;dn":"Little+Blue+Pill+2010+WEBRip+XviD-QRIUS","amp;tr":["udp%3A%2F%2Ftracker.openbittorrent.com%3A80","udp%3A%2F%2Fopen.demonii.com%3A1337","udp%3A%2F%2Ftracker.coppersurfer.tk%3A6969","udp%3A%2F%2Fexodus.desync.com%3A6969"],"infoHash":"9e03f9e3a093fd88f6cad5ac8a62dbf5c93de4ed","infoHashBuffer":{"type":"Buffer","data":[158,3,249,227,160,147,253,136,246,202,213,172,138,98,219,245,201,61,228,237]},"announce":[],"urlList":[]}}